<?xml version="1.0" encoding="UTF-8"?>
<svg id="Layer_1" data-name="Layer 1" xmlns="http://www.w3.org/2000/svg" viewBox="0 0 1046.15 213.06">
  <defs>
    <style>
      .cls-1 {
        fill: #39ba9f;
      }

      .cls-2 {
        fill: #154762;
      }
    </style>
  </defs>
  <polygon class="cls-2" points="99.09 84.01 77.74 62.66 140.41 0 246.35 0 246.35 89.88 226.96 109.27 150 32.31 99.09 84.01"/>
  <polygon class="cls-1" points="115.14 14.3 103.1 0 0 0 0 89.88 123.17 213.06 142.56 193.67 94.78 145.89 101.57 139.09 149.35 186.87 168.83 167.4 121.83 120.4 127.29 114.95 174.28 161.95 193.82 142.41 147.21 95.8 153.88 89.13 200.49 135.74 220.11 116.12 151.2 47.22 100.09 98.33 64.43 62.66 115.14 14.3"/>
  <g>
    <path class="cls-2" d="M345.38,58.45c-3.82-12.98-8.57-18.41-20.7-18.41-6.45,0-12.47,2.12-18.07,6.45l6.62,8.4c3.99-2.46,7.04-3.48,10.43-3.48,4.5,0,7.04,1.87,8.48,5.01.76,1.61,1.53,3.9,2.46,6.96,1.61,5.09,2.8,7.89,5.43,10.69h-14.17c-15.36,0-24.35,7.47-24.35,20.62s9.42,20.28,25.45,20.28h10.18v-12.73h-12.9c-5.85,0-9.76-2.97-9.76-7.8s3.9-7.81,9.59-7.81h29.01l3.31-10.94c-5.85-2.12-8.4-8.06-11.03-17.22"/>
    <path class="cls-2" d="M458.56,92.13c-3.82,0-6.79,2.97-6.79,6.79s2.97,6.79,6.79,6.79,6.79-2.97,6.79-6.79-3.05-6.79-6.79-6.79"/>
    <path class="cls-2" d="M550.95,36.47c3.73,0,6.7-3.05,6.7-6.79s-2.97-6.79-6.7-6.79-6.87,2.97-6.87,6.79,3.05,6.79,6.87,6.79"/>
    <path class="cls-2" d="M580.56,71.6c-3.05,1.44-7.55,2.29-11.88,2.29h0c-4.84,0-8.74-.76-11.88-2.29v-28.08h-12.05v28.08c-3.14,1.53-7.04,2.29-11.88,2.29h-46.24c-3.31,0-4.75-.42-5.77-1.7-2.8-3.14-4.33-7.3-6.11-13.66-3.82-13.07-8.57-18.5-20.7-18.5-6.36,0-12.39,2.12-17.98,6.45l6.62,8.4c3.99-2.46,6.96-3.48,10.35-3.48,4.5,0,7.04,1.87,8.48,5.01.76,1.61,1.53,3.9,2.46,7.04,1.44,5.01,2.71,7.64,5.17,10.43h-77.38c-4.41,0-8.82-.85-11.88-2.29V24.68h-12.05v49.04c0,4.41,1.1,6.45,4.75,8.48,4.64,2.57,11.3,4.31,18.56,4.4.04,0,.1,0,.15,0,.13,0,.25.01.38.01h141.26c.09,0,.18,0,.28,0,.09,0,.2,0,.28,0,6.23-.09,11.99-1.68,17.26-4.73,5.27,3.05,11.03,4.64,17.27,4.73.08,0,.18,0,.27,0,.09,0,.19,0,.28,0h.17c10.1,0,19-4.24,23.84-9.93V24.68h-12.05v46.92Z"/>
    <rect class="cls-2" x="607.54" y="24.68" width="12.05" height="61.93"/>
    <path class="cls-2" d="M669.05,65.91c0-4.41,2.63-7.04,6.7-7.04,2.12,0,3.9.68,5.43,2.12l7.72-7.3c-3.48-3.14-8.4-5.34-13.91-5.34-9.59,0-16.21,6.87-16.21,15.78,0,3.82,1.19,7.13,3.56,9.76h-8.15v12.73h35.63v-12.73h-11.11c-6.02-.26-9.67-2.63-9.67-7.98"/>
    <path class="cls-2" d="M815.32,68.29c-.51-12.98-5.52-15.95-20.87-20.53l-4.92-1.36,22.4-16.8-6.11-7.72-30.88,23.42,2.55,9.5,10.86,2.97c12.64,3.65,14.42,4.75,14.85,10.86v2.63c-3.14,1.44-8.48,2.63-14.17,2.63h-61.85c-4.41,0-8.82-.85-11.88-2.29V24.68h-12.05v49.04c0,4.41,1.1,6.45,4.75,8.48,4.64,2.57,11.3,4.31,18.56,4.4.04,0,.1,0,.15,0,.13,0,.25.01.38.01h60.66c4.84,0,9.84-.51,14.85-1.53,5.09-1.02,9.33-2.46,12.73-4.41v-12.39Z"/>
    <path class="cls-2" d="M1012.98,33.08c3.31,0,5.85-2.63,5.85-5.94s-2.54-6.02-5.85-6.02-5.94,2.63-5.94,6.02,2.63,5.94,5.94,5.94"/>
    <path class="cls-2" d="M1014.76,39.53c0,3.31,2.71,5.94,6.02,5.94s5.85-2.63,5.85-5.94-2.55-5.94-5.85-5.94-6.02,2.54-6.02,5.94"/>
    <path class="cls-2" d="M1005.35,45.47c3.31,0,5.85-2.63,5.85-5.94s-2.54-5.94-5.85-5.94-6.02,2.63-6.02,5.94,2.63,5.94,6.02,5.94"/>
    <path class="cls-2" d="M1034.11,44.45v27.32c-2.29,1.44-4.84,2.12-7.55,2.12s-5.09-.68-7.55-2.04v-18.07h-12.05v18.07c-2.38,1.36-4.92,2.04-7.55,2.04s-5.17-.68-7.55-2.12v-17.99h-12.05v17.82c-3.31,1.36-7.55,2.29-11.88,2.29h-110.79c-4.5,0-8.99-.85-12.05-2.54v-26.47h-12.05v38.69c0,8.74-3.22,12.72-12.3,12.72-1.53,0-2.63,0-3.39-.08l-2.29,12.22c2.38.26,4.41.42,6.11.42,14.51,0,23.5-7.47,23.92-24.35,3.99,1.44,7.97,2.12,11.96,2.12h110.96c.1,0,.19,0,.29,0,.09,0,.18,0,.26,0,6.89-.09,12.8-1.83,17.01-4.39,3.48,2.63,8.48,4.41,14,4.41,5.01,0,9.5-1.44,13.66-4.33,4.16,2.89,8.65,4.33,13.49,4.33,7.81,0,14.76-2.89,19.43-7.89v-34.28h-12.05Z"/>
    <path class="cls-2" d="M322.45,191.94c-2.81,0-5.48-.28-8.01-.84-2.53-.56-4.77-1.46-6.71-2.7-1.94-1.24-3.46-2.81-4.56-4.7-1.1-1.89-1.65-4.2-1.65-6.92v-.74c0-.26.02-.46.07-.6h10.39c-.05.14-.07.33-.07.56v.63c0,1.5.41,2.76,1.23,3.79.82,1.03,2.03,1.8,3.62,2.32,1.59.51,3.44.77,5.55.77,1.36,0,2.56-.08,3.62-.25,1.05-.16,1.99-.4,2.81-.7.82-.3,1.5-.67,2.04-1.09.54-.42.94-.91,1.19-1.47.26-.56.39-1.19.39-1.9,0-1.27-.41-2.29-1.23-3.09-.82-.79-1.94-1.47-3.37-2.04-1.43-.56-3.03-1.08-4.81-1.54-1.78-.47-3.6-.95-5.48-1.44-1.87-.49-3.7-1.1-5.48-1.83-1.78-.73-3.37-1.6-4.78-2.63-1.4-1.03-2.53-2.34-3.37-3.93-.84-1.59-1.26-3.51-1.26-5.76,0-2.39.5-4.45,1.51-6.18,1.01-1.73,2.42-3.16,4.25-4.29,1.83-1.12,3.93-1.95,6.32-2.49,2.39-.54,4.99-.81,7.8-.81,2.62,0,5.1.27,7.44.81,2.34.54,4.4,1.39,6.18,2.56,1.78,1.17,3.17,2.64,4.18,4.42,1.01,1.78,1.51,3.89,1.51,6.32v.84h-10.18v-.56c0-1.26-.38-2.34-1.12-3.23-.75-.89-1.8-1.59-3.16-2.11-1.36-.51-2.95-.77-4.78-.77-1.97,0-3.64.19-5.02.56-1.38.38-2.44.93-3.16,1.65-.73.73-1.09,1.58-1.09,2.56,0,1.12.41,2.05,1.23,2.77.82.73,1.94,1.36,3.37,1.9,1.43.54,3.03,1.02,4.81,1.44,1.78.42,3.6.89,5.48,1.4,1.87.52,3.7,1.12,5.48,1.83,1.78.7,3.37,1.58,4.78,2.63,1.4,1.05,2.53,2.35,3.37,3.9.84,1.54,1.26,3.39,1.26,5.55,0,3.7-.89,6.67-2.67,8.92-1.78,2.25-4.21,3.89-7.3,4.92-3.09,1.03-6.62,1.54-10.6,1.54"/>
    <path class="cls-2" d="M372.24,191.94c-4.4,0-8.18-.7-11.34-2.11-3.16-1.41-5.58-3.52-7.27-6.36-1.69-2.83-2.53-6.36-2.53-10.57v-29.99h10.53v29.71c0,3.46.91,6.12,2.74,7.97,1.83,1.85,4.45,2.77,7.87,2.77s6.05-.92,7.9-2.77c1.85-1.85,2.77-4.51,2.77-7.97v-29.71h10.53v29.99c0,4.21-.84,7.74-2.53,10.57-1.69,2.83-4.11,4.95-7.27,6.36-3.16,1.4-6.96,2.11-11.41,2.11"/>
    <path class="cls-2" d="M425.47,191.94c-5.01,0-9.29-.88-12.85-2.63-3.56-1.76-6.26-4.48-8.11-8.18-1.85-3.7-2.77-8.4-2.77-14.12,0-8.43,2.07-14.69,6.21-18.79,4.14-4.1,9.98-6.14,17.52-6.14,4.12,0,7.82.7,11.1,2.11,3.28,1.4,5.86,3.51,7.76,6.32s2.84,6.34,2.84,10.6h-10.53c0-2.25-.46-4.14-1.37-5.69-.91-1.55-2.2-2.73-3.86-3.55-1.66-.82-3.59-1.23-5.79-1.23-3,0-5.47.59-7.41,1.76-1.94,1.17-3.37,2.89-4.28,5.16-.91,2.27-1.37,5.05-1.37,8.32v2.18c0,3.37.47,6.19,1.4,8.46.94,2.27,2.35,3.98,4.25,5.13,1.9,1.15,4.34,1.72,7.34,1.72,2.34,0,4.38-.4,6.11-1.2,1.73-.79,3.07-1.97,4-3.51.93-1.55,1.4-3.44,1.4-5.69h10.11c0,4.26-.92,7.8-2.77,10.61-1.85,2.81-4.41,4.9-7.69,6.29-3.28,1.38-7.02,2.07-11.23,2.07"/>
    <path class="cls-2" d="M476.94,191.94c-5.01,0-9.29-.88-12.85-2.63-3.56-1.76-6.26-4.48-8.11-8.18-1.85-3.7-2.77-8.4-2.77-14.12,0-8.43,2.07-14.69,6.21-18.79,4.14-4.1,9.98-6.14,17.52-6.14,4.12,0,7.82.7,11.1,2.11,3.28,1.4,5.86,3.51,7.76,6.32s2.84,6.34,2.84,10.6h-10.53c0-2.25-.46-4.14-1.37-5.69-.91-1.55-2.2-2.73-3.86-3.55-1.66-.82-3.59-1.23-5.79-1.23-3,0-5.47.59-7.41,1.76-1.94,1.17-3.37,2.89-4.28,5.16-.91,2.27-1.37,5.05-1.37,8.32v2.18c0,3.37.47,6.19,1.4,8.46.94,2.27,2.35,3.98,4.25,5.13,1.9,1.15,4.34,1.72,7.34,1.72,2.34,0,4.38-.4,6.11-1.2,1.73-.79,3.07-1.97,4-3.51.93-1.55,1.4-3.44,1.4-5.69h10.11c0,4.26-.92,7.8-2.77,10.61-1.85,2.81-4.41,4.9-7.69,6.29-3.28,1.38-7.02,2.07-11.23,2.07"/>
    <polygon class="cls-2" points="506.86 191.1 506.86 142.92 545.34 142.92 545.34 151.49 517.39 151.49 517.39 162.23 542.11 162.23 542.11 170.73 517.39 170.73 517.39 182.46 545.76 182.46 545.76 191.1 506.86 191.1"/>
    <path class="cls-2" d="M573.57,191.94c-2.81,0-5.48-.28-8.01-.84-2.53-.56-4.77-1.46-6.71-2.7-1.94-1.24-3.46-2.81-4.56-4.7-1.1-1.89-1.65-4.2-1.65-6.92v-.74c0-.26.02-.46.07-.6h10.39c-.05.14-.07.33-.07.56v.63c0,1.5.41,2.76,1.23,3.79.82,1.03,2.03,1.8,3.62,2.32,1.59.51,3.44.77,5.55.77,1.36,0,2.56-.08,3.62-.25,1.05-.16,1.99-.4,2.81-.7.82-.3,1.5-.67,2.04-1.09.54-.42.94-.91,1.19-1.47.26-.56.39-1.19.39-1.9,0-1.27-.41-2.29-1.23-3.09-.82-.79-1.94-1.47-3.37-2.04-1.43-.56-3.03-1.08-4.81-1.54-1.78-.47-3.6-.95-5.48-1.44-1.87-.49-3.7-1.1-5.48-1.83-1.78-.73-3.37-1.6-4.78-2.63-1.4-1.03-2.53-2.34-3.37-3.93-.84-1.59-1.26-3.51-1.26-5.76,0-2.39.5-4.45,1.51-6.18,1.01-1.73,2.42-3.16,4.25-4.29,1.83-1.12,3.93-1.95,6.32-2.49,2.39-.54,4.99-.81,7.8-.81,2.62,0,5.1.27,7.44.81,2.34.54,4.4,1.39,6.18,2.56,1.78,1.17,3.17,2.64,4.18,4.42,1.01,1.78,1.51,3.89,1.51,6.32v.84h-10.18v-.56c0-1.26-.38-2.34-1.12-3.23-.75-.89-1.8-1.59-3.16-2.11-1.36-.51-2.95-.77-4.78-.77-1.97,0-3.64.19-5.02.56-1.38.38-2.44.93-3.16,1.65-.73.73-1.09,1.58-1.09,2.56,0,1.12.41,2.05,1.23,2.77.82.73,1.94,1.36,3.37,1.9,1.43.54,3.03,1.02,4.81,1.44,1.78.42,3.6.89,5.48,1.4,1.87.52,3.7,1.12,5.48,1.83,1.78.7,3.37,1.58,4.78,2.63,1.41,1.05,2.53,2.35,3.37,3.9.84,1.54,1.26,3.39,1.26,5.55,0,3.7-.89,6.67-2.67,8.92-1.78,2.25-4.21,3.89-7.3,4.92-3.09,1.03-6.62,1.54-10.6,1.54"/>
    <path class="cls-2" d="M621.25,191.94c-2.81,0-5.48-.28-8.01-.84-2.53-.56-4.77-1.46-6.71-2.7-1.94-1.24-3.46-2.81-4.56-4.7-1.1-1.89-1.65-4.2-1.65-6.92v-.74c0-.26.02-.46.07-.6h10.39c-.05.14-.07.33-.07.56v.63c0,1.5.41,2.76,1.23,3.79.82,1.03,2.03,1.8,3.62,2.32,1.59.51,3.44.77,5.55.77,1.36,0,2.56-.08,3.62-.25,1.05-.16,1.99-.4,2.81-.7.82-.3,1.5-.67,2.04-1.09.54-.42.94-.91,1.19-1.47.26-.56.39-1.19.39-1.9,0-1.27-.41-2.29-1.23-3.09-.82-.79-1.94-1.47-3.37-2.04-1.43-.56-3.03-1.08-4.81-1.54-1.78-.47-3.6-.95-5.48-1.44-1.87-.49-3.7-1.1-5.48-1.83-1.78-.73-3.37-1.6-4.78-2.63-1.41-1.03-2.53-2.34-3.37-3.93-.84-1.59-1.26-3.51-1.26-5.76,0-2.39.5-4.45,1.51-6.18,1.01-1.73,2.42-3.16,4.25-4.29,1.83-1.12,3.93-1.95,6.32-2.49,2.39-.54,4.99-.81,7.8-.81,2.62,0,5.1.27,7.44.81,2.34.54,4.4,1.39,6.18,2.56,1.78,1.17,3.17,2.64,4.18,4.42,1.01,1.78,1.51,3.89,1.51,6.32v.84h-10.18v-.56c0-1.26-.38-2.34-1.12-3.23-.75-.89-1.8-1.59-3.16-2.11-1.36-.51-2.95-.77-4.78-.77-1.97,0-3.64.19-5.02.56-1.38.38-2.44.93-3.16,1.65-.73.73-1.09,1.58-1.09,2.56,0,1.12.41,2.05,1.23,2.77.82.73,1.94,1.36,3.37,1.9,1.43.54,3.03,1.02,4.81,1.44,1.78.42,3.6.89,5.48,1.4,1.87.52,3.7,1.12,5.48,1.83,1.78.7,3.37,1.58,4.78,2.63,1.41,1.05,2.53,2.35,3.37,3.9.84,1.54,1.26,3.39,1.26,5.55,0,3.7-.89,6.67-2.67,8.92-1.78,2.25-4.21,3.89-7.3,4.92-3.09,1.03-6.62,1.54-10.6,1.54"/>
    <path class="cls-2" d="M1025.58,191.94c-2.81,0-5.48-.28-8.01-.84-2.53-.56-4.77-1.46-6.71-2.7-1.94-1.24-3.46-2.81-4.56-4.7-1.1-1.89-1.65-4.2-1.65-6.92v-.74c0-.26.02-.46.07-.6h10.39c-.05.14-.07.33-.07.56v.63c0,1.5.41,2.76,1.23,3.79.82,1.03,2.03,1.8,3.62,2.32,1.59.51,3.44.77,5.55.77,1.36,0,2.56-.08,3.62-.25,1.05-.16,1.99-.4,2.81-.7.82-.3,1.5-.67,2.04-1.09.54-.42.94-.91,1.19-1.47.26-.56.39-1.19.39-1.9,0-1.27-.41-2.29-1.23-3.09-.82-.79-1.94-1.47-3.37-2.04-1.43-.56-3.03-1.08-4.81-1.54-1.78-.47-3.6-.95-5.48-1.44-1.87-.49-3.7-1.1-5.48-1.83-1.78-.73-3.37-1.6-4.78-2.63-1.41-1.03-2.53-2.34-3.37-3.93-.84-1.59-1.26-3.51-1.26-5.76,0-2.39.5-4.45,1.51-6.18,1.01-1.73,2.42-3.16,4.25-4.29,1.83-1.12,3.93-1.95,6.32-2.49,2.39-.54,4.99-.81,7.8-.81,2.62,0,5.1.27,7.44.81,2.34.54,4.4,1.39,6.18,2.56,1.78,1.17,3.17,2.64,4.18,4.42,1.01,1.78,1.51,3.89,1.51,6.32v.84h-10.18v-.56c0-1.26-.38-2.34-1.12-3.23-.75-.89-1.8-1.59-3.16-2.11-1.36-.51-2.95-.77-4.78-.77-1.97,0-3.64.19-5.02.56-1.38.38-2.44.93-3.16,1.65-.73.73-1.09,1.58-1.09,2.56,0,1.12.41,2.05,1.23,2.77.82.73,1.94,1.36,3.37,1.9,1.43.54,3.03,1.02,4.81,1.44,1.78.42,3.6.89,5.48,1.4,1.87.52,3.7,1.12,5.48,1.83,1.78.7,3.37,1.58,4.78,2.63,1.41,1.05,2.53,2.35,3.37,3.9.84,1.54,1.26,3.39,1.26,5.55,0,3.7-.89,6.67-2.67,8.92-1.78,2.25-4.21,3.89-7.3,4.92-3.09,1.03-6.62,1.54-10.6,1.54"/>
    <path class="cls-2" d="M663.95,191.1v-48.18h25.07c3.46,0,6.36.64,8.67,1.93,2.32,1.29,4.07,3.09,5.27,5.41,1.19,2.32,1.79,5.07,1.79,8.25s-.62,5.96-1.86,8.32c-1.24,2.36-3.05,4.2-5.44,5.51-2.39,1.31-5.31,1.96-8.78,1.96h-14.26v16.79h-10.46ZM674.42,165.74h12.85c2.2,0,3.9-.63,5.09-1.9,1.2-1.26,1.79-3.02,1.79-5.27,0-1.54-.26-2.83-.77-3.86-.52-1.03-1.28-1.83-2.28-2.39-1.01-.56-2.28-.84-3.83-.84h-12.85v14.26Z"/>
    <path class="cls-2" d="M703.35,191.1l18.54-48.17h12.92l18.54,48.17h-11.31l-3.44-9.48h-21l-3.44,9.48h-10.81ZM720.62,173.19h14.96l-4.28-11.87c-.19-.52-.41-1.14-.67-1.86-.26-.73-.53-1.53-.81-2.42-.28-.89-.55-1.77-.81-2.63-.26-.87-.5-1.65-.74-2.35h-.42c-.23.89-.54,1.93-.91,3.12s-.75,2.34-1.12,3.44c-.38,1.1-.68,2-.91,2.7l-4.28,11.87Z"/>
    <path class="cls-2" d="M759.11,191.1v-48.18h26.41c3.56,0,6.52.63,8.88,1.9,2.36,1.26,4.13,3.03,5.3,5.3,1.17,2.27,1.76,4.88,1.76,7.83,0,3.14-.7,5.91-2.11,8.32-1.4,2.41-3.44,4.25-6.11,5.51l9.83,19.31h-11.59l-8.5-17.56h-13.41v17.56h-10.46ZM769.57,165.25h14.54c2.11,0,3.74-.64,4.92-1.93,1.17-1.29,1.76-3.03,1.76-5.23,0-1.4-.26-2.61-.77-3.62-.52-1.01-1.27-1.77-2.25-2.28-.98-.51-2.2-.77-3.65-.77h-14.54v13.83Z"/>
    <polygon class="cls-2" points="820.98 191.1 820.98 151.7 805.53 151.7 805.53 142.92 847.03 142.92 847.03 151.7 831.51 151.7 831.51 191.1 820.98 191.1"/>
    <path class="cls-2" d="M854.12,191.1v-48.17h9.62l19.38,25.98c.28.33.63.79,1.05,1.37.42.59.82,1.16,1.19,1.72.38.56.63,1.01.77,1.33h.35v-30.41h9.9v48.17h-9.62l-19.8-26.61c-.47-.66-.96-1.38-1.47-2.18-.52-.8-.89-1.4-1.12-1.83h-.35v30.62h-9.9Z"/>
    <polygon class="cls-2" points="907.07 191.1 907.07 142.92 945.55 142.92 945.55 151.49 917.6 151.49 917.6 162.23 942.32 162.23 942.32 170.73 917.6 170.73 917.6 182.46 945.98 182.46 945.98 191.1 907.07 191.1"/>
    <path class="cls-2" d="M955.03,191.1v-48.18h26.41c3.56,0,6.52.63,8.88,1.9,2.36,1.26,4.13,3.03,5.3,5.3,1.17,2.27,1.76,4.88,1.76,7.83,0,3.14-.7,5.91-2.11,8.32-1.4,2.41-3.44,4.25-6.11,5.51l9.83,19.31h-11.59l-8.5-17.56h-13.41v17.56h-10.46ZM965.5,165.25h14.54c2.11,0,3.74-.64,4.92-1.93,1.17-1.29,1.76-3.03,1.76-5.23,0-1.4-.26-2.61-.77-3.62-.52-1.01-1.27-1.77-2.25-2.28-.98-.51-2.2-.77-3.65-.77h-14.54v13.83Z"/>
  </g>
</svg>