<?xml version="1.0" encoding="UTF-8"?>
<svg id="Layer_1" xmlns="http://www.w3.org/2000/svg" version="1.1" viewBox="0 0 1080 1080">
  <!-- Generator: Adobe Illustrator 30.0.0, SVG Export Plug-In . SVG Version: 2.1.1 Build 123)  -->
  <defs>
    <style>
      .st0 {
        fill: #39ba9f;
      }

      .st1 {
        fill: #fff;
      }

      .st2 {
        fill: #154762;
      }
    </style>
  </defs>
  <rect class="st2" width="1080" height="1080"/>
  <polygon class="st1" points="497.28 500.06 459.43 462.21 570.56 351.08 758.44 351.08 758.44 510.48 724.06 544.86 587.58 408.38 497.28 500.06"/>
  <polygon class="st0" points="525.76 376.43 504.4 351.08 321.56 351.08 321.56 510.48 540 728.92 574.38 694.54 489.64 609.81 501.69 597.75 586.43 682.49 620.98 647.95 537.63 564.6 547.29 554.93 630.64 638.28 665.29 603.64 582.63 520.98 594.47 509.15 677.12 591.8 711.91 557.02 589.71 434.82 499.06 525.46 435.81 462.21 525.76 376.43"/>
</svg>